<svg width="16" xmlns="http://www.w3.org/2000/svg" height="18" id="screenshot-26957d8c-bcd2-8087-8006-70b12af0b948" viewBox="-845 514 16 18" xmlns:xlink="http://www.w3.org/1999/xlink" fill="none" version="1.1"><g id="shape-26957d8c-bcd2-8087-8006-70b12af0b948"><g class="fills" id="fills-26957d8c-bcd2-8087-8006-70b12af0b948"><path d="M-842.000,532.000C-842.550,532.000,-843.021,531.804,-843.412,531.413C-843.804,531.021,-844.000,530.550,-844.000,530.000L-844.000,517.000L-845.000,517.000L-845.000,515.000L-840.000,515.000L-840.000,514.000L-834.000,514.000L-834.000,515.000L-829.000,515.000L-829.000,517.000L-830.000,517.000L-830.000,530.000C-830.000,530.550,-830.196,531.021,-830.587,531.413C-830.979,531.804,-831.450,532.000,-832.000,532.000L-842.000,532.000ZZM-832.000,517.000L-842.000,517.000L-842.000,530.000L-832.000,530.000L-832.000,517.000ZZM-840.000,528.000L-838.000,528.000L-838.000,519.000L-840.000,519.000L-840.000,528.000ZZM-836.000,528.000L-834.000,528.000L-834.000,519.000L-836.000,519.000L-836.000,528.000ZZM-842.000,517.000L-842.000,530.000L-842.000,517.000ZZ" fill="fff" style="fill: rgb(219, 0, 27); fill-opacity: 1;"/></g></g></svg>