<svg width="73" xmlns="http://www.w3.org/2000/svg" height="24" id="screenshot-b454e9d4-ed4c-8021-8006-8fdfe0de583a" viewBox="0 -0 73 24" xmlns:xlink="http://www.w3.org/1999/xlink" fill="none" version="1.1"><g id="shape-b454e9d4-ed4c-8021-8006-8fdfe0de583a" width="73" height="24" rx="0" ry="0" style="fill: rgb(0, 0, 0);"><g id="shape-b454e9d4-ed4c-8021-8006-8fdfe0de583c" style="display: none;"><g class="fills" id="fills-b454e9d4-ed4c-8021-8006-8fdfe0de583c"><rect width="73" height="24" x="0" transform="matrix(1.000000, 0.000000, 0.000000, 1.000000, 0.000000, 0.000000)" style="fill: none;" ry="0" fill="none" rx="0" y="0"/></g></g><g id="shape-b454e9d4-ed4c-8021-8006-8fdfe0de583d"><g class="fills" id="fills-b454e9d4-ed4c-8021-8006-8fdfe0de583d"><path d="M0.000,23.120L7.737,5.949L10.881,5.949L18.643,23.120L15.302,23.120L8.646,7.641L9.923,7.641L3.291,23.120L0.000,23.120ZZM3.562,19.146L4.421,16.644L13.706,16.644L14.566,19.146L3.562,19.146ZZ" style="fill: rgb(33, 33, 33);"/></g></g><g id="shape-b454e9d4-ed4c-8021-8006-8fdfe0de583e"><g class="fills" id="fills-b454e9d4-ed4c-8021-8006-8fdfe0de583e"><path d="M20.829,23.120L20.829,5.949L24.023,5.949L24.023,20.422L33.012,20.422L33.012,23.120L20.829,23.120ZZ" style="fill: rgb(33, 33, 33);"/></g></g><g id="shape-b454e9d4-ed4c-8021-8006-8fdfe0de583f"><g class="fills" id="fills-b454e9d4-ed4c-8021-8006-8fdfe0de583f"><path d="M39.394,23.120L31.878,5.949L35.342,5.949L42.047,21.477L40.058,21.477L46.837,5.949L50.030,5.949L42.538,23.120L39.394,23.120ZZ" style="fill: rgb(33, 33, 33);"/></g></g><g id="shape-b454e9d4-ed4c-8021-8006-8fdfe0de5840"><g class="fills" id="fills-b454e9d4-ed4c-8021-8006-8fdfe0de5840"><path d="M59.611,23.279C58.270,23.279,57.035,23.058,55.907,22.615C54.778,22.172,53.797,21.557,52.963,20.769C52.129,19.965,51.483,19.030,51.025,17.964C50.567,16.881,50.338,15.700,50.338,14.421C50.338,13.141,50.567,11.968,51.025,10.902C51.483,9.819,52.129,8.884,52.963,8.097C53.797,7.293,54.778,6.670,55.907,6.227C57.035,5.784,58.262,5.562,59.586,5.562C60.928,5.562,62.154,5.784,63.266,6.227C64.395,6.670,65.376,7.293,66.210,8.097C67.044,8.884,67.691,9.819,68.148,10.902C68.606,11.968,68.835,13.141,68.835,14.421C68.835,15.700,68.606,16.881,68.148,17.964C67.691,19.047,67.044,19.982,66.210,20.769C65.376,21.557,64.395,22.172,63.266,22.615C62.154,23.058,60.936,23.279,59.611,23.279ZZM59.586,20.474C60.453,20.474,61.255,20.326,61.991,20.031C62.727,19.736,63.365,19.317,63.904,18.776C64.444,18.218,64.861,17.579,65.155,16.857C65.466,16.119,65.622,15.307,65.622,14.421C65.622,13.535,65.466,12.731,65.155,12.009C64.861,11.271,64.444,10.631,63.904,10.090C63.365,9.532,62.727,9.106,61.991,8.810C61.255,8.515,60.453,8.367,59.586,8.367C58.720,8.367,57.918,8.515,57.182,8.810C56.463,9.106,55.825,9.532,55.269,10.090C54.729,10.631,54.304,11.271,53.993,12.009C53.699,12.731,53.552,13.535,53.552,14.421C53.552,15.290,53.699,16.094,53.993,16.832C54.304,17.570,54.729,18.218,55.269,18.776C55.809,19.317,56.446,19.736,57.182,20.031C57.918,20.326,58.720,20.474,59.586,20.474ZZ" style="fill: rgb(33, 33, 33);"/></g></g><g id="shape-b454e9d4-ed4c-8021-8006-8fdfe0de5841"><g class="fills" id="fills-b454e9d4-ed4c-8021-8006-8fdfe0de5841"><path d="M59.596,17.828C59.090,17.828,58.624,17.743,58.199,17.572C57.773,17.402,57.403,17.165,57.089,16.862C56.774,16.553,56.531,16.194,56.358,15.784C56.186,15.367,56.099,14.913,56.099,14.421C56.099,13.928,56.186,13.477,56.358,13.067C56.531,12.651,56.774,12.291,57.089,11.988C57.403,11.679,57.773,11.439,58.199,11.269C58.624,11.099,59.087,11.014,59.586,11.014C60.092,11.014,60.555,11.099,60.974,11.269C61.399,11.439,61.769,11.679,62.084,11.988C62.398,12.291,62.642,12.651,62.815,13.067C62.988,13.477,63.074,13.928,63.074,14.421C63.074,14.913,62.988,15.367,62.815,15.784C62.642,16.200,62.398,16.560,62.084,16.862C61.769,17.165,61.399,17.402,60.974,17.572C60.555,17.743,60.095,17.828,59.596,17.828ZZ" style="fill: rgb(5, 64, 154);"/></g></g><g id="shape-b454e9d4-ed4c-8021-8006-8fdfe0de5842"><g class="fills" id="fills-b454e9d4-ed4c-8021-8006-8fdfe0de5842"><path d="M59.027,12.483C58.589,12.961,58.621,13.701,59.099,14.139C59.344,14.364,59.642,14.457,59.947,14.444C60.252,14.431,60.541,14.301,60.766,14.067L66.053,8.293L69.093,8.162C69.410,8.148,69.698,8.006,69.912,7.785L72.157,5.333C72.483,4.978,72.555,4.468,72.360,4.041C72.165,3.614,71.718,3.339,71.248,3.360L68.901,3.461L68.799,1.123C68.779,0.653,68.478,0.231,68.024,0.074C67.570,-0.095,67.082,0.032,66.756,0.388L64.511,2.839C64.298,3.072,64.193,3.371,64.207,3.688L64.339,6.732L59.027,12.483ZZ" style="fill: rgb(33, 33, 33);"/></g></g></g></svg>